<?xml version="1.0" standalone="no"?>
<!DOCTYPE svg PUBLIC "-//W3C//DTD SVG 20010904//EN"
 "http://www.w3.org/TR/2001/REC-SVG-20010904/DTD/svg10.dtd">
<svg version="1.0" xmlns="http://www.w3.org/2000/svg"
 width="512.000000pt" height="512.000000pt" viewBox="0 0 512.000000 512.000000"
 preserveAspectRatio="xMidYMid meet">
<metadata>
Created by potrace 1.16, written by Peter Selinger 2001-2019
</metadata>
<g transform="translate(0.000000,512.000000) scale(0.100000,-0.100000)"
fill="#000000" stroke="none">
<path d="M1048 5104 c-261 -47 -496 -173 -685 -367 -148 -152 -243 -308 -303
-494 -62 -194 -60 -130 -60 -1683 0 -1541 -2 -1488 56 -1672 60 -191 164 -360
312 -511 191 -192 426 -316 689 -362 70 -12 211 -15 794 -15 l709 0 0 960 0
960 -264 0 c-257 0 -264 1 -297 23 -18 12 -44 38 -56 56 -23 33 -23 39 -23
321 0 282 0 288 23 321 12 18 38 44 56 56 33 22 40 23 297 23 l263 0 3 408 c4
402 5 408 30 492 33 110 66 183 121 267 128 195 326 340 553 404 74 22 101 23
432 27 345 3 354 3 387 -18 19 -12 43 -36 54 -54 20 -32 21 -48 21 -323 0
-284 0 -291 -22 -323 -52 -76 -46 -74 -371 -80 -271 -5 -295 -6 -327 -25 -19
-12 -43 -36 -55 -55 -19 -33 -20 -54 -23 -377 l-3 -343 321 0 c348 0 367 -3
408 -55 47 -60 46 -79 -13 -376 -56 -281 -64 -302 -119 -343 -26 -20 -43 -21
-312 -24 l-284 -3 0 -959 0 -960 309 0 c334 0 408 7 562 56 188 59 353 159
500 301 202 196 327 429 374 699 23 130 23 2878 0 3008 -47 267 -171 501 -368
693 -152 148 -308 243 -494 303 -194 62 -129 60 -1692 59 -1169 -1 -1440 -3
-1503 -15z"/>
</g>
</svg>
