<?xml version="1.0" standalone="no"?>
<!DOCTYPE svg PUBLIC "-//W3C//DTD SVG 20010904//EN"
 "http://www.w3.org/TR/2001/REC-SVG-20010904/DTD/svg10.dtd">
<svg version="1.0" xmlns="http://www.w3.org/2000/svg"
 width="512.000000pt" height="512.000000pt" viewBox="0 0 512.000000 512.000000"
 preserveAspectRatio="xMidYMid meet">
<metadata>
Created by potrace 1.16, written by Peter Selinger 2001-2019
</metadata>
<g transform="translate(0.000000,512.000000) scale(0.100000,-0.100000)"
fill="#000000" stroke="none">
<path d="M253 4459 c-23 -4 -55 -15 -72 -24 -17 -8 -31 -13 -31 -11 0 3 -20
-14 -45 -36 -25 -23 -57 -66 -73 -97 l-27 -56 0 -1670 0 -1670 24 -53 c31 -69
113 -144 183 -168 43 -15 86 -18 228 -19 l175 0 5 1442 5 1443 895 -667 c492
-366 911 -673 930 -681 21 -9 65 -16 110 -16 61 -1 85 4 125 24 28 14 447 321
933 683 486 361 885 657 887 657 3 0 5 -647 5 -1439 l0 -1438 31 -7 c46 -9
234 -7 306 3 122 18 212 88 253 197 20 54 20 70 20 1717 l0 1662 -24 50 c-36
79 -105 139 -188 166 -64 20 -75 21 -139 9 -47 -8 -85 -22 -117 -44 -26 -17
-505 -372 -1064 -789 -559 -416 -1022 -757 -1028 -757 -5 0 -475 346 -1044
769 -568 423 -1052 779 -1074 790 -51 26 -135 39 -189 30z"/>
</g>
</svg>
