<?xml version="1.0" standalone="no"?>
<!DOCTYPE svg PUBLIC "-//W3C//DTD SVG 20010904//EN"
 "http://www.w3.org/TR/2001/REC-SVG-20010904/DTD/svg10.dtd">
<svg version="1.0" xmlns="http://www.w3.org/2000/svg"
 width="512.000000pt" height="512.000000pt" viewBox="0 0 512.000000 512.000000"
 preserveAspectRatio="xMidYMid meet">

<g transform="translate(0.000000,512.000000) scale(0.100000,-0.100000)"
fill="#000000" stroke="none">
<path d="M1115 5109 c-91 -12 -231 -50 -323 -87 -348 -143 -633 -457 -736
-815 -53 -182 -51 -122 -51 -1652 l0 -1430 23 -104 c57 -252 159 -446 331
-624 183 -190 398 -310 661 -369 l105 -23 1440 0 c1340 0 1446 1 1522 18 513
110 886 480 1009 997 17 70 18 173 22 1465 2 895 -1 1424 -7 1485 -31 288
-152 548 -353 756 -183 189 -392 305 -668 370 -70 17 -174 18 -1490 20 -803 1
-1445 -2 -1485 -7z m910 -1427 c22 -16 397 -248 832 -516 868 -534 837 -512
836 -607 -1 -95 31 -72 -876 -630 -804 -496 -834 -513 -889 -517 -70 -5 -113
17 -146 76 l-22 40 0 1036 c0 1121 -3 1062 53 1114 53 50 144 51 212 4z"/>
</g>
</svg>
